<?xml version="1.0" standalone="no"?>
<!DOCTYPE svg PUBLIC "-//W3C//DTD SVG 20010904//EN"
 "http://www.w3.org/TR/2001/REC-SVG-20010904/DTD/svg10.dtd">
<svg version="1.0" xmlns="http://www.w3.org/2000/svg"
 width="512.000000pt" height="512.000000pt" viewBox="0 0 512.000000 512.000000"
 preserveAspectRatio="xMidYMid meet">

<g transform="translate(0.000000,512.000000) scale(0.100000,-0.100000)"
fill="#000000" stroke="none">
<path d="M875 4596 c-174 -43 -310 -193 -351 -386 -12 -61 -14 -294 -12 -1683
l3 -1612 26 -71 c63 -174 188 -289 347 -323 75 -16 3269 -16 3344 0 161 34
283 147 347 323 l26 71 0 645 0 645 -23 42 c-76 143 -285 139 -359 -7 l-23
-44 0 -581 c0 -548 -1 -582 -19 -622 -37 -79 104 -73 -1621 -73 -1725 0 -1584
-6 -1621 73 -18 41 -19 90 -19 1567 0 1477 1 1526 19 1567 35 76 7 73 666 73
506 0 591 2 623 15 78 33 123 104 123 192 0 72 -38 137 -101 173 l-45 25 -640
2 c-478 1 -653 -2 -690 -11z"/>
<path d="M3315 4598 c-135 -47 -183 -214 -93 -323 59 -71 77 -75 388 -75 l275
0 -772 -772 c-837 -839 -800 -797 -791 -904 13 -151 177 -248 313 -185 27 13
280 259 795 775 415 416 758 756 762 756 5 0 8 -120 8 -267 0 -303 4 -322 75
-381 114 -93 285 -37 325 107 15 55 13 1082 -2 1135 -16 53 -81 118 -134 134
-54 16 -1103 16 -1149 0z"/>
</g>
</svg>
